<?xml version="1.0" standalone="no"?>
<!DOCTYPE svg PUBLIC "-//W3C//DTD SVG 20010904//EN"
 "http://www.w3.org/TR/2001/REC-SVG-20010904/DTD/svg10.dtd">
<svg version="1.0" xmlns="http://www.w3.org/2000/svg"
 width="1000.000000pt" height="1000.000000pt" viewBox="0 0 1000.000000 1000.000000"
 preserveAspectRatio="xMidYMid meet">
<metadata>
Created by potrace 1.14, written by Peter Selinger 2001-2017
</metadata>
<g transform="translate(0.000000,1000.000000) scale(0.100000,-0.100000)"
fill="#000000" stroke="none">
<path d="M1850 4730 l0 -4320 818 0 817 0 -1 1966 c-1 1855 0 1964 16 1947 17
-18 66 -73 172 -193 100 -115 509 -583 567 -650 31 -35 74 -85 96 -109 49 -55
47 -53 115 -132 30 -35 62 -70 70 -79 8 -9 42 -47 75 -85 56 -66 79 -92 136
-156 13 -15 47 -53 74 -85 61 -71 205 -235 219 -250 6 -6 34 -37 61 -70 28
-32 68 -79 90 -104 57 -63 54 -61 115 -131 30 -35 62 -70 70 -79 8 -9 28 -31
44 -50 25 -31 111 -129 171 -196 32 -35 192 -218 230 -263 11 -13 31 -36 43
-50 13 -14 47 -53 75 -85 29 -33 88 -100 131 -149 43 -50 91 -104 105 -120 14
-17 33 -38 41 -47 8 -8 28 -31 44 -50 16 -19 55 -64 87 -100 31 -36 66 -74 76
-86 54 -63 137 -158 207 -237 43 -50 91 -104 105 -120 14 -17 33 -38 41 -47 8
-9 42 -47 75 -85 32 -39 67 -78 77 -87 16 -17 79 -18 1043 -18 564 0 1025 3
1025 6 0 4 -106 130 -130 154 -3 3 -36 41 -75 85 -38 44 -72 82 -75 85 -3 3
-37 41 -75 85 -38 44 -71 82 -74 85 -4 3 -31 34 -61 70 -30 36 -57 67 -60 70
-8 8 -157 177 -220 250 -30 35 -60 68 -65 74 -9 10 -135 153 -194 221 -55 64
-186 213 -246 280 -34 39 -77 88 -96 110 -19 22 -38 45 -44 51 -10 11 -113
127 -148 168 -10 12 -36 42 -58 67 -21 25 -51 59 -66 75 -15 17 -39 43 -53 60
-46 53 -248 284 -315 359 -18 20 -104 119 -148 169 -10 12 -42 48 -70 80 -59
67 -63 71 -137 156 -77 88 -79 90 -140 160 -30 35 -59 68 -65 74 -5 6 -39 45
-75 86 -69 79 -125 143 -150 170 -8 8 -40 45 -70 80 -30 36 -64 74 -75 86 -11
11 -41 45 -67 75 -25 30 -54 63 -65 75 -47 55 -130 149 -146 168 -10 12 -45
50 -76 86 -32 36 -71 81 -87 100 -16 19 -38 44 -49 56 -11 11 -31 34 -45 50
-48 56 -155 179 -160 184 -3 3 -38 42 -78 88 l-72 82 77 93 c43 50 80 94 83
97 3 3 41 48 85 100 44 52 85 100 90 106 6 6 28 32 50 58 22 27 47 56 55 66 8
10 38 44 65 76 74 87 115 134 165 194 25 30 76 90 114 134 104 123 106 125
186 221 41 49 82 96 90 105 23 25 57 66 140 165 67 81 105 126 135 159 6 6 32
38 60 71 27 33 54 65 60 71 5 6 28 33 50 59 22 27 45 53 50 59 6 6 33 38 60
71 28 33 52 62 55 65 3 3 30 34 60 70 30 36 57 67 60 70 3 3 39 46 80 95 41
50 80 95 85 101 6 6 30 35 55 64 25 30 74 88 110 130 36 42 85 100 110 130 39
47 136 161 204 240 11 14 44 52 71 85 28 33 55 65 60 71 6 6 29 33 52 60 23
27 50 59 60 70 10 12 36 43 58 70 22 26 83 98 135 159 52 61 115 135 140 165
25 29 50 58 55 64 13 14 165 195 185 220 8 10 20 23 25 30 6 6 75 88 154 181
80 94 154 180 165 193 l19 22 -995 0 -996 0 -69 -82 c-37 -46 -72 -88 -78 -94
-5 -6 -26 -30 -45 -54 -19 -24 -71 -87 -115 -140 -44 -53 -107 -129 -140 -170
-33 -40 -85 -103 -115 -139 -31 -36 -87 -104 -125 -151 -38 -47 -77 -94 -86
-105 -10 -11 -45 -54 -79 -95 -34 -41 -69 -84 -79 -95 -9 -11 -48 -58 -86
-105 -38 -47 -92 -112 -120 -146 -27 -33 -66 -80 -87 -105 -20 -24 -44 -54
-55 -65 -10 -12 -30 -37 -45 -55 -14 -19 -36 -45 -48 -59 -33 -39 -52 -61 -95
-115 -21 -28 -42 -52 -45 -55 -4 -4 -101 -121 -160 -193 -8 -10 -22 -28 -32
-38 -9 -11 -31 -38 -48 -59 -17 -21 -39 -48 -48 -58 -10 -11 -29 -35 -44 -53
-14 -19 -35 -44 -46 -57 -11 -13 -35 -42 -54 -64 -18 -23 -91 -112 -163 -199
-71 -86 -164 -199 -207 -250 -42 -52 -85 -104 -96 -117 -11 -13 -35 -42 -54
-64 -41 -52 -265 -323 -332 -404 -28 -33 -67 -80 -86 -104 -35 -43 -147 -179
-244 -296 -63 -75 -118 -141 -143 -173 -20 -24 -20 -7 -21 1955 0 1088 -1
1985 -1 1992 -1 9 -171 12 -816 12 l-815 0 0 -4320z"/>
</g>
</svg>
